<svg width="316" height="146" viewBox="0 0 316 146" fill="none" xmlns="http://www.w3.org/2000/svg">
<rect width="316" height="146" fill="white"/>
<path d="M125.299 63.2499C128.831 63.2499 131.694 60.6002 131.694 57.3317C131.694 54.0631 128.831 51.4134 125.299 51.4134C121.766 51.4134 118.903 54.0631 118.903 57.3317C118.903 60.6002 121.766 63.2499 125.299 63.2499Z" fill="#252525" stroke="#252525" stroke-width="2" stroke-miterlimit="10"/>
<path d="M126.828 51.4133C126.828 51.4133 144.223 21.1742 166.616 21.1742" stroke="#252525" stroke-width="2" stroke-miterlimit="10"/>
<path d="M173.396 39.0846C173.373 39.0506 173.355 39.0209 173.336 38.9827L193.126 27.4066C193.157 27.4377 193.175 27.4674 193.198 27.5014C195.538 30.9253 194.993 38.5809 189.529 41.777C184.058 44.9773 175.735 42.5085 173.396 39.0846Z" fill="#8FBFC7"/>
<path d="M169.7 3.54699C171.461 5.97766 171.639 8.72526 170.095 9.6831L165.202 12.7207C163.657 13.6772 160.977 12.483 159.215 10.0524C157.453 7.62026 157.277 4.87411 158.821 3.91485L163.714 0.878639C165.258 -0.0791999 167.939 1.1149 169.7 3.54699Z" fill="#252525"/>
<path d="M207.999 21.6343L162.832 48.0633C162.755 47.9925 162.71 47.9218 162.664 47.851C158.245 41.3711 158.337 28.2557 165.63 19.795C164.132 19.7809 162.648 19.1031 161.762 17.8581C161.211 17.1082 160.951 16.2438 160.951 15.4105C160.951 13.9956 161.685 12.6091 163.046 11.7744L169.942 7.50159C172.113 6.14336 175.049 6.68099 176.501 8.69004C177.434 9.96339 177.541 11.5197 176.929 12.8355C188.825 9.66768 203.305 14.7469 207.862 21.4108C207.908 21.4928 207.953 21.5494 207.999 21.6343Z" fill="#252525"/>
<path d="M76.9526 126.046C76.2126 126.046 75.5765 125.249 75.448 124.573L66.0231 74.8459C65.9452 74.4342 66.0675 74.2672 66.358 73.9461C66.647 73.6263 67.0766 73.6971 67.5277 73.6971H73.5719C74.3242 73.6971 74.9664 73.8739 75.0826 74.5615L81.8409 114.361L100.44 74.3068C100.682 73.7848 101.235 73.6956 101.847 73.6956H108.097C108.614 73.6956 109.097 73.6065 109.382 74.0111C109.663 74.4143 109.704 74.7554 109.492 75.1925L85.4158 124.989C85.1711 125.497 84.6237 126.044 84.0213 126.044H76.9526V126.046Z" fill="#252525"/>
<path d="M108.097 74.4483L84.0213 124.027H76.9526L67.5277 74.4483H73.5719L81.1544 119.286L101.847 74.4483H108.097Z" fill="#252525"/>
<path d="M111.785 126.046C111.34 126.046 110.92 125.564 110.629 125.255C110.339 124.945 110.209 124.384 110.272 123.978L117.851 74.6575C117.958 73.96 118.603 73.6969 119.365 73.6969H125.102C125.547 73.6969 125.967 73.5427 126.258 73.8511C126.548 74.1595 126.678 74.4071 126.615 74.8117L119.036 124.608C118.929 125.307 118.284 126.046 117.522 126.046H111.785V126.046Z" fill="#252525"/>
<path d="M125.101 74.4483L117.522 124.027H111.785L119.364 74.4483H125.101V74.4483Z" fill="#252525"/>
<path d="M203.978 74.7313L196.408 124.57C196.301 125.277 195.643 126.046 194.894 126.046H189.145C188.703 126.046 188.29 125.559 187.998 125.26C187.709 124.951 187.571 124.656 187.631 124.26L194.252 80.7712H176.241L169.773 123.352C169.131 127.654 168.122 131.003 166.763 133.592C165.371 136.237 163.567 138.309 161.426 139.895C159.362 141.408 156.472 142.96 152.832 144.573C152.619 144.67 152.39 144.692 152.174 144.692C151.977 144.692 151.792 144.658 151.61 144.588C151.213 144.446 150.89 144.147 150.739 143.781L149.103 139.789C148.827 139.11 149.147 138.345 149.852 138.019C152.312 136.872 154.272 135.743 155.63 134.666C156.914 133.635 158.031 132.176 158.917 130.324C159.849 128.4 160.584 126 161.104 122.677L167.419 80.7712H151.424L144.957 123.352C144.312 127.654 143.306 131.003 141.944 133.592C140.552 136.237 138.748 138.309 136.607 139.895C134.543 141.408 131.653 142.96 128.016 144.573C127.8 144.67 127.586 144.692 127.355 144.692C127.158 144.692 126.973 144.658 126.791 144.588C126.393 144.446 126.071 144.147 125.919 143.781L124.283 139.789C124.008 139.11 124.331 138.345 125.033 138.019C127.511 136.872 129.453 135.743 130.814 134.666C132.098 133.635 133.211 132.176 134.098 130.324C135.032 128.4 135.765 126 136.285 122.677L142.603 80.7712H136.06C135.615 80.7712 135.188 80.3128 134.898 80.0001C134.606 79.6902 134.484 79.1356 134.546 78.7381L135.263 74.6336C135.386 73.9404 136.028 73.6971 136.777 73.6971H143.751L144.791 66.2494C145.462 62.0049 147.285 58.4495 150.205 56.0301C153.141 53.5824 156.979 52.2581 161.579 52.2581C163.72 52.2581 165.784 52.5369 167.711 53.1453C169.578 53.7536 171.518 54.6068 173.445 55.7401C173.92 56.0075 174.165 56.456 174.165 56.9229C172.726 58.2967 171.596 59.9491 170.815 61.845C170.755 61.8733 170.692 61.8861 170.633 61.9016C170.51 61.9158 170.403 61.9285 170.281 61.9285C169.992 61.9285 169.717 61.8578 169.472 61.7177C166.919 60.2166 164.336 59.4667 161.783 59.4667C159.32 59.4667 157.422 60.0326 156.124 61.1645C154.78 62.3247 153.875 64.5516 153.463 67.1266L152.482 73.6971H168.552L169.605 66.2494C169.85 64.7214 170.247 63.2316 170.812 61.9158C171.134 61.8026 171.41 61.5536 171.595 61.2862L173.948 57.6741C174.101 57.4477 174.163 57.1818 174.163 56.9285C174.53 56.5748 174.912 56.2466 175.31 55.9339C178.412 53.499 182.48 52.2228 187.405 52.2228C192.145 52.2228 196.745 53.6235 201.088 56.439C201.745 56.8634 201.946 57.6826 201.514 58.3207L199.161 61.9129C198.946 62.2525 198.594 62.4775 198.181 62.5638C198.074 62.5779 197.969 62.5921 197.862 62.5921C197.554 62.5921 197.25 62.5072 196.99 62.3374C193.917 60.3708 190.721 59.3663 187.509 59.3663C184.695 59.3663 182.524 59.9605 181.088 61.1051C179.637 62.2652 178.688 64.5063 178.275 67.1238L177.295 73.6971H202.464C202.906 73.6971 203.336 73.5499 203.626 73.8456C203.915 74.1583 204.037 74.3365 203.978 74.7313Z" fill="#252525"/>
<path d="M174.162 56.92C174.162 57.1747 174.099 57.4294 173.946 57.6572L171.593 61.2508C171.408 61.5182 171.133 61.7319 170.81 61.845C171.595 59.9478 172.723 58.291 174.162 56.92Z" fill="#252525"/>
<path d="M202.464 75.1117L194.894 124.631H189.145L196.01 79.3562H174.911L168.257 123.169C167.63 127.327 166.683 130.509 165.384 132.97C164.084 135.431 162.448 137.334 160.459 138.79C158.488 140.235 155.719 141.713 152.171 143.301L150.52 139.317C153.121 138.114 155.155 136.906 156.621 135.747C158.09 134.573 159.312 132.957 160.306 130.907C161.3 128.854 162.064 126.354 162.615 122.888L169.179 79.3562H150.097L143.445 123.169C142.818 127.327 141.869 130.509 140.569 132.97C139.27 135.431 137.633 137.334 135.663 138.79C133.673 140.235 130.906 141.713 127.357 143.301L125.724 139.317C128.306 138.114 130.342 136.906 131.808 135.747C133.277 134.573 134.516 132.957 135.493 130.907C136.487 128.854 137.251 126.354 137.802 122.888L144.361 79.3562H136.059L136.776 75.1117H145.078L146.303 66.4317C146.915 62.5127 148.566 59.2982 151.228 57.0628C153.889 54.8557 157.344 53.6728 161.58 53.6728C163.55 53.6728 165.433 53.9247 167.206 54.4906C168.98 55.0537 170.8 55.8673 172.636 56.9284L170.28 60.5178C167.482 58.8766 164.653 58.0531 161.78 58.0531C158.904 58.0531 156.67 58.745 155.066 60.1329C153.459 61.5322 152.421 63.9997 151.945 66.9142L150.707 75.1117H169.894L171.119 66.4317C171.731 62.5127 173.457 59.2982 176.304 57.0628C179.133 54.8557 182.833 53.6728 187.405 53.6728C191.854 53.6728 196.119 54.9717 200.216 57.616L197.863 61.1997C194.513 59.0492 191.058 57.9555 187.51 57.9555C184.299 57.9555 181.824 58.646 180.081 60.0481C178.354 61.4346 177.238 63.9445 176.763 66.9156L175.521 75.1117H202.464Z" fill="#252525"/>
<path d="M174.162 56.92C174.162 57.1747 174.099 57.4294 173.946 57.6572L171.593 61.2508C171.408 61.5182 171.133 61.7319 170.81 61.845C171.595 59.9478 172.723 58.291 174.162 56.92Z" fill="#252525"/>
<path d="M224.525 126.484C218.612 126.484 213.959 124.655 210.701 121.048C207.505 117.517 205.888 112.554 205.888 106.3C205.888 100.856 206.865 95.471 208.79 90.2942C210.739 85.0367 213.777 80.6465 217.808 77.2424C221.938 73.7577 227.092 71.992 233.13 71.992C238.016 71.992 241.916 73.2201 244.723 75.6422C247.56 78.0913 249 81.2619 249 85.065C249 91.6623 246.005 96.6567 239.528 99.9122C233.656 102.861 226.17 104.834 215.467 105.785V106.204C215.467 110.713 216.094 114.029 217.904 116.065C219.663 118.046 221.912 119.008 225.08 119.008C227.329 119.008 229.377 118.645 231.299 117.927C233.297 117.182 235.461 116.01 237.802 114.442C238.064 114.266 238.358 114.175 238.678 114.175C238.771 114.175 238.853 114.182 238.947 114.198C239.357 114.267 239.714 114.489 239.941 114.812L242.502 118.415C242.938 119.027 242.795 119.844 242.175 120.3C239.405 122.336 236.568 123.891 233.739 124.918C230.873 125.956 227.774 126.484 224.525 126.484ZM232.825 79.2755C227.855 79.2755 224.033 81.211 221.134 85.1938C218.41 88.9331 216.543 93.4535 215.576 98.6516C223.71 97.8635 229.88 96.419 233.93 94.3491C238.016 92.2622 240.002 89.2883 240.002 85.256C240.002 83.4111 239.441 81.9835 238.288 80.887C237.158 79.8188 235.317 79.2755 232.825 79.2755Z" fill="#252525"/>
<path d="M238.509 98.6686C232.531 101.671 224.147 103.613 213.359 104.498V106.204C213.359 111.071 214.383 114.658 216.432 116.962C218.481 119.27 221.314 120.422 224.935 120.422C227.395 120.422 229.681 120.028 231.8 119.237C233.915 118.448 236.205 117.233 238.662 115.589L241.225 119.189C238.561 121.149 235.88 122.619 233.182 123.598C230.482 124.577 227.598 125.066 224.525 125.066C219.06 125.066 214.843 123.425 211.872 120.137C208.904 116.853 207.417 112.24 207.417 106.299C207.417 100.99 208.354 95.8092 210.236 90.7526C212.112 85.6974 214.982 81.5421 218.84 78.2866C222.698 75.0325 227.462 73.4054 233.133 73.4054C237.639 73.4054 241.158 74.4962 243.684 76.6765C246.21 78.8567 247.474 81.6525 247.474 85.065C247.473 91.1318 244.483 95.6677 238.509 98.6686ZM219.863 84.4015C216.689 88.762 214.655 94.0407 213.768 100.232C223.124 99.4736 230.092 97.9258 234.667 95.5871C239.242 93.2498 241.529 89.8047 241.529 85.2546C241.529 83.0432 240.812 81.2577 239.38 79.8981C237.945 78.5398 235.76 77.8607 232.825 77.8607C227.358 77.8607 223.04 80.041 219.863 84.4015Z" fill="#252525"/>
</svg>
