<svg width="172" height="40" viewBox="0 0 172 40" fill="none" xmlns="http://www.w3.org/2000/svg">
<path d="M42.888 29.328C42.888 28 43.16 26.824 43.704 25.8C44.264 24.776 45.016 23.984 45.96 23.424C46.92 22.848 47.984 22.56 49.152 22.56C50.016 22.56 50.864 22.752 51.696 23.136C52.544 23.504 53.216 24 53.712 24.624V18.24H56.472V36H53.712V34.008C53.264 34.648 52.64 35.176 51.84 35.592C51.056 36.008 50.152 36.216 49.128 36.216C47.976 36.216 46.92 35.928 45.96 35.352C45.016 34.76 44.264 33.944 43.704 32.904C43.16 31.848 42.888 30.656 42.888 29.328ZM53.712 29.376C53.712 28.464 53.52 27.672 53.136 27C52.768 26.328 52.28 25.816 51.672 25.464C51.064 25.112 50.408 24.936 49.704 24.936C49 24.936 48.344 25.112 47.736 25.464C47.128 25.8 46.632 26.304 46.248 26.976C45.88 27.632 45.696 28.416 45.696 29.328C45.696 30.24 45.88 31.04 46.248 31.728C46.632 32.416 47.128 32.944 47.736 33.312C48.36 33.664 49.016 33.84 49.704 33.84C50.408 33.84 51.064 33.664 51.672 33.312C52.28 32.96 52.768 32.448 53.136 31.776C53.52 31.088 53.712 30.288 53.712 29.376ZM60.2576 21.024C59.7616 21.024 59.3456 20.856 59.0096 20.52C58.6736 20.184 58.5056 19.768 58.5056 19.272C58.5056 18.776 58.6736 18.36 59.0096 18.024C59.3456 17.688 59.7616 17.52 60.2576 17.52C60.7376 17.52 61.1456 17.688 61.4816 18.024C61.8176 18.36 61.9856 18.776 61.9856 19.272C61.9856 19.768 61.8176 20.184 61.4816 20.52C61.1456 20.856 60.7376 21.024 60.2576 21.024ZM61.6016 22.776V36H58.8656V22.776H61.6016ZM80.0018 22.56C81.0418 22.56 81.9698 22.776 82.7858 23.208C83.6178 23.64 84.2658 24.28 84.7298 25.128C85.2098 25.976 85.4498 27 85.4498 28.2V36H82.7378V28.608C82.7378 27.424 82.4418 26.52 81.8498 25.896C81.2578 25.256 80.4498 24.936 79.4258 24.936C78.4018 24.936 77.5858 25.256 76.9778 25.896C76.3858 26.52 76.0898 27.424 76.0898 28.608V36H73.3778V28.608C73.3778 27.424 73.0818 26.52 72.4898 25.896C71.8978 25.256 71.0898 24.936 70.0658 24.936C69.0418 24.936 68.2258 25.256 67.6178 25.896C67.0258 26.52 66.7298 27.424 66.7298 28.608V36H63.9938V22.776H66.7298V24.288C67.1778 23.744 67.7458 23.32 68.4338 23.016C69.1218 22.712 69.8578 22.56 70.6418 22.56C71.6978 22.56 72.6418 22.784 73.4738 23.232C74.3058 23.68 74.9458 24.328 75.3938 25.176C75.7938 24.376 76.4178 23.744 77.2658 23.28C78.1138 22.8 79.0258 22.56 80.0018 22.56ZM99.8513 29.064C99.8513 29.56 99.8193 30.008 99.7553 30.408H89.6513C89.7313 31.464 90.1233 32.312 90.8273 32.952C91.5313 33.592 92.3953 33.912 93.4193 33.912C94.8913 33.912 95.9313 33.296 96.5393 32.064H99.4913C99.0913 33.28 98.3633 34.28 97.3073 35.064C96.2673 35.832 94.9713 36.216 93.4193 36.216C92.1553 36.216 91.0193 35.936 90.0113 35.376C89.0193 34.8 88.2353 34 87.6593 32.976C87.0993 31.936 86.8193 30.736 86.8193 29.376C86.8193 28.016 87.0913 26.824 87.6353 25.8C88.1953 24.76 88.9713 23.96 89.9633 23.4C90.9713 22.84 92.1233 22.56 93.4193 22.56C94.6673 22.56 95.7793 22.832 96.7553 23.376C97.7313 23.92 98.4913 24.688 99.0353 25.68C99.5793 26.656 99.8513 27.784 99.8513 29.064ZM96.9953 28.2C96.9793 27.192 96.6193 26.384 95.9153 25.776C95.2113 25.168 94.3393 24.864 93.2993 24.864C92.3553 24.864 91.5473 25.168 90.8753 25.776C90.2033 26.368 89.8033 27.176 89.6753 28.2H96.9953ZM108.016 22.56C109.056 22.56 109.984 22.776 110.8 23.208C111.632 23.64 112.28 24.28 112.744 25.128C113.208 25.976 113.44 27 113.44 28.2V36H110.728V28.608C110.728 27.424 110.432 26.52 109.84 25.896C109.248 25.256 108.44 24.936 107.416 24.936C106.392 24.936 105.576 25.256 104.968 25.896C104.376 26.52 104.08 27.424 104.08 28.608V36H101.344V22.776H104.08V24.288C104.528 23.744 105.096 23.32 105.784 23.016C106.488 22.712 107.232 22.56 108.016 22.56ZM120.53 36.216C119.49 36.216 118.554 36.032 117.722 35.664C116.906 35.28 116.258 34.768 115.778 34.128C115.298 33.472 115.042 32.744 115.01 31.944H117.842C117.89 32.504 118.154 32.976 118.634 33.36C119.13 33.728 119.746 33.912 120.482 33.912C121.25 33.912 121.842 33.768 122.258 33.48C122.69 33.176 122.906 32.792 122.906 32.328C122.906 31.832 122.666 31.464 122.186 31.224C121.722 30.984 120.978 30.72 119.954 30.432C118.962 30.16 118.154 29.896 117.53 29.64C116.906 29.384 116.362 28.992 115.898 28.464C115.45 27.936 115.226 27.24 115.226 26.376C115.226 25.672 115.434 25.032 115.85 24.456C116.266 23.864 116.858 23.4 117.626 23.064C118.41 22.728 119.306 22.56 120.314 22.56C121.818 22.56 123.026 22.944 123.938 23.712C124.866 24.464 125.362 25.496 125.426 26.808H122.69C122.642 26.216 122.402 25.744 121.97 25.392C121.538 25.04 120.954 24.864 120.218 24.864C119.498 24.864 118.946 25 118.562 25.272C118.178 25.544 117.986 25.904 117.986 26.352C117.986 26.704 118.114 27 118.37 27.24C118.626 27.48 118.938 27.672 119.306 27.816C119.674 27.944 120.218 28.112 120.938 28.32C121.898 28.576 122.682 28.84 123.29 29.112C123.914 29.368 124.45 29.752 124.898 30.264C125.346 30.776 125.578 31.456 125.594 32.304C125.594 33.056 125.386 33.728 124.97 34.32C124.554 34.912 123.962 35.376 123.194 35.712C122.442 36.048 121.554 36.216 120.53 36.216ZM128.742 21.024C128.246 21.024 127.83 20.856 127.494 20.52C127.158 20.184 126.99 19.768 126.99 19.272C126.99 18.776 127.158 18.36 127.494 18.024C127.83 17.688 128.246 17.52 128.742 17.52C129.222 17.52 129.63 17.688 129.966 18.024C130.302 18.36 130.47 18.776 130.47 19.272C130.47 19.768 130.302 20.184 129.966 20.52C129.63 20.856 129.222 21.024 128.742 21.024ZM130.086 22.776V36H127.35V22.776H130.086ZM138.214 36.216C136.966 36.216 135.838 35.936 134.83 35.376C133.822 34.8 133.03 34 132.454 32.976C131.878 31.936 131.59 30.736 131.59 29.376C131.59 28.032 131.886 26.84 132.478 25.8C133.07 24.76 133.878 23.96 134.902 23.4C135.926 22.84 137.07 22.56 138.334 22.56C139.598 22.56 140.742 22.84 141.766 23.4C142.79 23.96 143.598 24.76 144.19 25.8C144.782 26.84 145.078 28.032 145.078 29.376C145.078 30.72 144.774 31.912 144.166 32.952C143.558 33.992 142.726 34.8 141.67 35.376C140.63 35.936 139.478 36.216 138.214 36.216ZM138.214 33.84C138.918 33.84 139.574 33.672 140.182 33.336C140.806 33 141.31 32.496 141.694 31.824C142.078 31.152 142.27 30.336 142.27 29.376C142.27 28.416 142.086 27.608 141.718 26.952C141.35 26.28 140.862 25.776 140.254 25.44C139.646 25.104 138.99 24.936 138.286 24.936C137.582 24.936 136.926 25.104 136.318 25.44C135.726 25.776 135.254 26.28 134.902 26.952C134.55 27.608 134.374 28.416 134.374 29.376C134.374 30.8 134.734 31.904 135.454 32.688C136.19 33.456 137.11 33.84 138.214 33.84ZM153.255 22.56C154.295 22.56 155.223 22.776 156.039 23.208C156.871 23.64 157.519 24.28 157.983 25.128C158.447 25.976 158.679 27 158.679 28.2V36H155.967V28.608C155.967 27.424 155.671 26.52 155.079 25.896C154.487 25.256 153.679 24.936 152.655 24.936C151.631 24.936 150.815 25.256 150.207 25.896C149.615 26.52 149.319 27.424 149.319 28.608V36H146.583V22.776H149.319V24.288C149.767 23.744 150.335 23.32 151.023 23.016C151.727 22.712 152.471 22.56 153.255 22.56ZM165.769 36.216C164.729 36.216 163.793 36.032 162.961 35.664C162.145 35.28 161.497 34.768 161.017 34.128C160.537 33.472 160.281 32.744 160.249 31.944H163.081C163.129 32.504 163.393 32.976 163.873 33.36C164.369 33.728 164.985 33.912 165.721 33.912C166.489 33.912 167.081 33.768 167.497 33.48C167.929 33.176 168.145 32.792 168.145 32.328C168.145 31.832 167.905 31.464 167.425 31.224C166.961 30.984 166.217 30.72 165.193 30.432C164.201 30.16 163.393 29.896 162.769 29.64C162.145 29.384 161.601 28.992 161.137 28.464C160.689 27.936 160.465 27.24 160.465 26.376C160.465 25.672 160.673 25.032 161.089 24.456C161.505 23.864 162.097 23.4 162.865 23.064C163.649 22.728 164.545 22.56 165.553 22.56C167.057 22.56 168.265 22.944 169.177 23.712C170.105 24.464 170.601 25.496 170.665 26.808H167.929C167.881 26.216 167.641 25.744 167.209 25.392C166.777 25.04 166.193 24.864 165.457 24.864C164.737 24.864 164.185 25 163.801 25.272C163.417 25.544 163.225 25.904 163.225 26.352C163.225 26.704 163.353 27 163.609 27.24C163.865 27.48 164.177 27.672 164.545 27.816C164.913 27.944 165.457 28.112 166.177 28.32C167.137 28.576 167.921 28.84 168.529 29.112C169.153 29.368 169.689 29.752 170.137 30.264C170.585 30.776 170.817 31.456 170.833 32.304C170.833 33.056 170.625 33.728 170.209 34.32C169.793 34.912 169.201 35.376 168.433 35.712C167.681 36.048 166.793 36.216 165.769 36.216Z" fill="#1F2937"/>
<circle cx="30" cy="10" r="10" fill="black"/>
<circle cx="10" cy="10" r="10" fill="#9F1239"/>
<circle cx="30" cy="30" r="10" fill="white"/>
<circle cx="10" cy="30" r="10" fill="#0077B5"/>
</svg>
