<svg width="316" height="146" viewBox="0 0 316 146" fill="none" xmlns="http://www.w3.org/2000/svg">
<path d="M67.2708 115.176L64.3169 122H59L71.9969 92H77.3138L90.3107 122H84.9938L82.04 115.176H67.2708ZM80.0145 110.498L74.6554 98.1373L69.2963 110.498H80.0145Z" fill="#1378BE"/>
<path d="M99.3912 122H94.4118V92H102.176L111.08 110.841L119.984 92H127.706V122H122.727V98.5665L112.43 119.382H109.645L99.3912 98.5665V122Z" fill="#1378BE"/>
<path d="M158.021 92H163V122H157.599L140.888 100.112V122H135.909V92H140.888L158.021 114.403V92Z" fill="#1378BE"/>
<path d="M61 141.821V128.172H63.2851V134.088H70.0049V128.172H72.29V141.821H70.0049V136.236H63.2851V141.821H61Z" fill="#5AB4E6"/>
<path d="M85.3295 137.584H77.2542C77.3058 138.339 77.6479 138.951 78.2805 139.419C78.9131 139.875 79.6361 140.103 80.4495 140.103C81.7405 140.103 82.7217 139.693 83.393 138.873L84.6324 140.239C83.5221 141.398 82.0762 141.977 80.2945 141.977C78.8486 141.977 77.6157 141.496 76.5958 140.532C75.5888 139.556 75.0853 138.254 75.0853 136.627C75.0853 134.987 75.6017 133.685 76.6345 132.721C77.6673 131.758 78.8809 131.276 80.2752 131.276C81.6824 131.276 82.8766 131.706 83.8578 132.565C84.8389 133.411 85.3295 134.583 85.3295 136.08V137.584ZM77.2542 135.865H83.1606C83.1606 134.993 82.8895 134.323 82.3473 133.854C81.805 133.385 81.1337 133.151 80.3333 133.151C79.5457 133.151 78.8357 133.398 78.2031 133.893C77.5705 134.375 77.2542 135.032 77.2542 135.865Z" fill="#5AB4E6"/>
<path d="M96.0611 141.821H94.0858V140.435C93.2338 141.463 92.0912 141.977 90.6582 141.977C89.5866 141.977 88.6958 141.671 87.9858 141.06C87.2886 140.448 86.94 139.634 86.94 138.619C86.94 137.59 87.3144 136.822 88.0632 136.314C88.812 135.807 89.8255 135.553 91.1036 135.553H93.9116V135.162C93.9116 133.782 93.1498 133.092 91.6264 133.092C90.6711 133.092 89.677 133.444 88.6442 134.147L87.6759 132.78C88.9282 131.778 90.3483 131.276 91.9363 131.276C93.1498 131.276 94.1375 131.589 94.8992 132.214C95.6738 132.826 96.0611 133.795 96.0611 135.123V141.821ZM93.8922 137.955V137.076H91.4522C89.89 137.076 89.1089 137.571 89.1089 138.56C89.1089 139.068 89.3026 139.458 89.6899 139.732C90.0772 139.992 90.613 140.122 91.2972 140.122C91.9944 140.122 92.6012 139.927 93.1176 139.536C93.634 139.146 93.8922 138.619 93.8922 137.955Z" fill="#5AB4E6"/>
<path d="M101.249 141.821H99.0804V127.332H101.249V141.821Z" fill="#5AB4E6"/>
<path d="M107.067 133.19V138.462C107.067 138.957 107.196 139.354 107.454 139.654C107.712 139.94 108.074 140.083 108.539 140.083C109.004 140.083 109.449 139.855 109.875 139.4L110.766 140.942C110.004 141.632 109.158 141.977 108.229 141.977C107.312 141.977 106.525 141.658 105.866 141.021C105.221 140.37 104.898 139.497 104.898 138.404V133.19H103.601V131.433H104.898V128.172H107.067V131.433H109.778V133.19H107.067Z" fill="#5AB4E6"/>
<path d="M114.658 136.197V141.821H112.489V127.351H114.658V133.327C114.967 132.689 115.432 132.188 116.052 131.823C116.684 131.459 117.362 131.276 118.085 131.276C119.247 131.276 120.183 131.634 120.893 132.35C121.616 133.066 121.978 134.101 121.978 135.455V141.821H119.809V136.119C119.809 134.206 119.021 133.249 117.446 133.249C116.697 133.249 116.045 133.503 115.49 134.01C114.935 134.505 114.658 135.234 114.658 136.197Z" fill="#5AB4E6"/>
<path d="M129.578 141.977C128.145 141.977 126.912 141.489 125.879 140.513C124.847 139.523 124.33 138.235 124.33 136.646C124.33 135.058 124.866 133.769 125.938 132.78C127.022 131.778 128.339 131.276 129.888 131.276C131.437 131.276 132.748 131.817 133.819 132.897L132.541 134.479C131.65 133.698 130.753 133.307 129.849 133.307C128.946 133.307 128.158 133.613 127.487 134.225C126.828 134.824 126.499 135.605 126.499 136.568C126.499 137.519 126.828 138.326 127.487 138.99C128.145 139.654 128.952 139.986 129.907 139.986C130.876 139.986 131.786 139.543 132.638 138.658L133.916 140.064C132.664 141.339 131.218 141.977 129.578 141.977Z" fill="#5AB4E6"/>
<path d="M144.512 141.821H142.537V140.435C141.685 141.463 140.542 141.977 139.109 141.977C138.038 141.977 137.147 141.671 136.437 141.06C135.74 140.448 135.391 139.634 135.391 138.619C135.391 137.59 135.766 136.822 136.514 136.314C137.263 135.807 138.277 135.553 139.555 135.553H142.363V135.162C142.363 133.782 141.601 133.092 140.078 133.092C139.122 133.092 138.128 133.444 137.095 134.147L136.127 132.78C137.379 131.778 138.8 131.276 140.387 131.276C141.601 131.276 142.589 131.589 143.35 132.214C144.125 132.826 144.512 133.795 144.512 135.123V141.821ZM142.343 137.955V137.076H139.903C138.341 137.076 137.56 137.571 137.56 138.56C137.56 139.068 137.754 139.458 138.141 139.732C138.528 139.992 139.064 140.122 139.748 140.122C140.446 140.122 141.052 139.927 141.569 139.536C142.085 139.146 142.343 138.619 142.343 137.955Z" fill="#5AB4E6"/>
<path d="M152.935 133.483C151.863 133.483 151.056 133.835 150.514 134.538C149.972 135.24 149.701 136.184 149.701 137.369V141.821H147.532V131.433H149.701V133.522C150.049 132.871 150.52 132.337 151.114 131.921C151.721 131.504 152.36 131.289 153.031 131.276L153.051 133.483C153.012 133.483 152.973 133.483 152.935 133.483Z" fill="#5AB4E6"/>
<path d="M164.814 137.584H156.739C156.791 138.339 157.133 138.951 157.765 139.419C158.398 139.875 159.121 140.103 159.934 140.103C161.225 140.103 162.207 139.693 162.878 138.873L164.117 140.239C163.007 141.398 161.561 141.977 159.779 141.977C158.333 141.977 157.101 141.496 156.081 140.532C155.074 139.556 154.57 138.254 154.57 136.627C154.57 134.987 155.087 133.685 156.119 132.721C157.152 131.758 158.366 131.276 159.76 131.276C161.167 131.276 162.361 131.706 163.343 132.565C164.324 133.411 164.814 134.583 164.814 136.08V137.584ZM156.739 135.865H162.646C162.646 134.993 162.374 134.323 161.832 133.854C161.29 133.385 160.619 133.151 159.818 133.151C159.031 133.151 158.321 133.398 157.688 133.893C157.055 134.375 156.739 135.032 156.739 135.865Z" fill="#5AB4E6"/>
<path d="M176.437 129.968C175.778 129.968 175.236 130.105 174.81 130.378C174.384 130.652 174.171 131.068 174.171 131.628C174.171 132.175 174.384 132.598 174.81 132.897C175.236 133.184 176.14 133.496 177.521 133.835C178.916 134.173 179.961 134.648 180.658 135.26C181.369 135.872 181.724 136.777 181.724 137.974C181.724 139.159 181.278 140.122 180.387 140.864C179.497 141.606 178.328 141.977 176.882 141.977C174.765 141.977 172.887 141.242 171.247 139.771L172.68 138.033C174.048 139.231 175.469 139.829 176.94 139.829C177.676 139.829 178.257 139.673 178.683 139.361C179.122 139.035 179.342 138.612 179.342 138.091C179.342 137.558 179.135 137.148 178.722 136.861C178.322 136.562 177.625 136.295 176.63 136.061C175.636 135.813 174.881 135.592 174.365 135.397C173.848 135.188 173.39 134.922 172.99 134.596C172.189 133.984 171.789 133.047 171.789 131.784C171.789 130.521 172.241 129.552 173.145 128.875C174.061 128.185 175.191 127.84 176.534 127.84C177.399 127.84 178.257 127.983 179.109 128.269C179.961 128.556 180.697 128.959 181.317 129.48L180.097 131.218C179.697 130.853 179.154 130.554 178.47 130.32C177.786 130.085 177.108 129.968 176.437 129.968Z" fill="#5AB4E6"/>
<path d="M186.911 133.19V138.462C186.911 138.957 187.04 139.354 187.299 139.654C187.557 139.94 187.918 140.083 188.383 140.083C188.848 140.083 189.293 139.855 189.719 139.4L190.61 140.942C189.848 141.632 189.003 141.977 188.073 141.977C187.156 141.977 186.369 141.658 185.711 141.021C185.065 140.37 184.742 139.497 184.742 138.404V133.19H183.445V131.433H184.742V128.172H186.911V131.433H189.622V133.19H186.911Z" fill="#5AB4E6"/>
<path d="M200.679 141.821H198.704V140.435C197.852 141.463 196.709 141.977 195.276 141.977C194.205 141.977 193.314 141.671 192.604 141.06C191.907 140.448 191.558 139.634 191.558 138.619C191.558 137.59 191.933 136.822 192.681 136.314C193.43 135.807 194.444 135.553 195.722 135.553H198.53V135.162C198.53 133.782 197.768 133.092 196.245 133.092C195.289 133.092 194.295 133.444 193.262 134.147L192.294 132.78C193.546 131.778 194.967 131.276 196.555 131.276C197.768 131.276 198.756 131.589 199.517 132.214C200.292 132.826 200.679 133.795 200.679 135.123V141.821ZM198.51 137.955V137.076H196.07C194.508 137.076 193.727 137.571 193.727 138.56C193.727 139.068 193.921 139.458 194.308 139.732C194.695 139.992 195.231 140.122 195.915 140.122C196.613 140.122 197.219 139.927 197.736 139.536C198.252 139.146 198.51 138.619 198.51 137.955Z" fill="#5AB4E6"/>
<path d="M206.371 130.573V131.433H209.082V133.19H206.371V141.821H204.202V133.19H202.905V131.433H204.202V130.632C204.202 129.539 204.525 128.673 205.17 128.035C205.829 127.384 206.616 127.059 207.533 127.059C208.463 127.059 209.308 127.404 210.07 128.094L209.179 129.636C208.753 129.181 208.308 128.953 207.843 128.953C207.378 128.953 207.017 129.102 206.758 129.402C206.5 129.688 206.371 130.079 206.371 130.573Z" fill="#5AB4E6"/>
<path d="M213.841 130.573V131.433H216.552V133.19H213.841V141.821H211.672V133.19H210.375V131.433H211.672V130.632C211.672 129.539 211.995 128.673 212.64 128.035C213.299 127.384 214.086 127.059 215.003 127.059C215.933 127.059 216.778 127.404 217.54 128.094L216.649 129.636C216.223 129.181 215.778 128.953 215.313 128.953C214.848 128.953 214.487 129.102 214.228 129.402C213.97 129.688 213.841 130.079 213.841 130.573Z" fill="#5AB4E6"/>
<path d="M220.808 141.821H218.639V131.433H220.808V141.821ZM218.774 129.363C218.503 129.089 218.368 128.764 218.368 128.386C218.368 128.009 218.503 127.683 218.774 127.41C219.045 127.137 219.368 127 219.743 127C220.117 127 220.44 127.137 220.711 127.41C220.982 127.683 221.118 128.009 221.118 128.386C221.118 128.764 220.982 129.089 220.711 129.363C220.44 129.636 220.117 129.773 219.743 129.773C219.368 129.773 219.045 129.636 218.774 129.363Z" fill="#5AB4E6"/>
<path d="M226.122 136.197V141.821H223.953V131.433H226.122V133.327C226.47 132.689 226.948 132.188 227.555 131.823C228.175 131.459 228.839 131.276 229.549 131.276C230.711 131.276 231.647 131.634 232.357 132.35C233.08 133.066 233.442 134.101 233.442 135.455V141.821H231.273V136.119C231.273 134.206 230.485 133.249 228.91 133.249C228.162 133.249 227.51 133.503 226.954 134.01C226.399 134.505 226.122 135.234 226.122 136.197Z" fill="#5AB4E6"/>
<path d="M246 131.433V140.493C246 142.329 245.503 143.702 244.509 144.614C243.528 145.538 242.262 146 240.713 146C239.164 146 237.763 145.512 236.511 144.535L237.537 142.876C238.544 143.644 239.558 144.028 240.578 144.028C241.611 144.028 242.424 143.761 243.018 143.227C243.625 142.693 243.928 141.841 243.928 140.669V139.341C243.605 139.953 243.14 140.441 242.534 140.806C241.94 141.17 241.268 141.353 240.52 141.353C239.151 141.353 238.028 140.871 237.15 139.908C236.272 138.944 235.833 137.746 235.833 136.314C235.833 134.882 236.272 133.685 237.15 132.721C238.028 131.758 239.145 131.276 240.5 131.276C241.869 131.276 242.979 131.843 243.831 132.975V131.433H246ZM237.963 136.236C237.963 137.083 238.222 137.818 238.738 138.443C239.267 139.055 239.971 139.361 240.849 139.361C241.74 139.361 242.456 139.061 242.998 138.462C243.554 137.864 243.831 137.122 243.831 136.236C243.831 135.338 243.554 134.583 242.998 133.971C242.443 133.346 241.727 133.034 240.849 133.034C239.971 133.034 239.267 133.353 238.738 133.991C238.222 134.629 237.963 135.377 237.963 136.236Z" fill="#5AB4E6"/>
<path d="M234.901 38.0472C226.371 55.0391 214.71 63.508 205.387 70.279C196.564 76.6863 189.835 81.573 189.835 90.7225C189.835 110.863 220.212 112.412 220.212 112.412V75.2298H257.283V38.0472H234.901Z" fill="#1378BE"/>
<path d="M219.236 0H182.053V37.1825H144.87V74.3651H175.503C182.053 63.0037 193.931 36.7259 219.236 36.7259V0Z" fill="#5AB4E6"/>
</svg>
