<svg width="316" height="146" viewBox="0 0 316 146" fill="none" xmlns="http://www.w3.org/2000/svg">
<g clip-path="url(#clip0_75_511)">
<rect width="316" height="146" fill="white"/>
<path d="M13.744 51.8733C14.7557 49.035 15.2615 47.6158 16.4048 46.8079C17.5478 46 19.0501 46 22.0546 46H25.9263L11.3859 87.3311C10.3818 90.1855 9.87963 91.6126 8.73418 92.4258C7.58855 93.2388 6.08007 93.5136 3.06312 93.5136C0.0461308 93.5136 -1 93.5136 -1 93.5136L13.744 51.8733Z" fill="#1F2937"/>
<path d="M48.2446 51.8733C47.2328 49.035 46.727 47.6158 45.5839 46.8079C44.4407 46 42.9384 46 39.934 46H36.0623L50.6027 87.3311C51.6067 90.1855 52.1089 91.6126 53.2544 92.4258C54.4 93.2388 55.9085 93.5136 58.9254 93.5136H62.9886L48.2446 51.8733Z" fill="#1F2937"/>
<path d="M29.2298 74.4309L23.3887 92.571C22.198 96.2688 21.6027 98.1178 20.1515 99.1775C18.7003 100.237 16.7636 100.237 12.8904 100.237H10.2585L28.6271 46H33.0009L51.8069 100.237H48.7584C44.8757 100.237 42.9345 100.237 41.4815 99.1736C40.0286 98.1099 39.4362 96.2549 38.2519 92.5451L32.4486 74.4309H29.2298Z" fill="#1F2937"/>
<path d="M156.185 53.1026H149.947V66.3111H146.97V72.3461H149.947V93.0305H156.185V72.3461H159.215V66.3111H156.185V53.1026Z" fill="#1F2937"/>
<path fill-rule="evenodd" clip-rule="evenodd" d="M202.26 53.1026H196.076V93.0305H209.742C209.742 93.0305 209.772 93.03 212.438 93.03C215.101 93.03 218.409 91.4732 220.3 89.6163C222.192 87.7573 223.148 85.1297 223.148 81.8221V77.2012V77.1939C222.907 73.6112 221.858 70.8955 219.972 69.076C218.085 67.2546 215.391 66.3629 211.923 66.3629H202.26V53.1026ZM211.923 72.398H202.26V86.7361H211.699C213.867 86.5051 215.171 85.8712 215.939 85.0509C216.705 84.2304 216.963 83.19 216.963 82.0814V77.478C216.753 75.3417 216.078 74.0856 215.189 73.3582C214.296 72.6273 213.149 72.398 211.923 72.398Z" fill="#1F2937"/>
<path fill-rule="evenodd" clip-rule="evenodd" d="M173.981 66.1036C170.375 66.1036 167.626 67.168 165.78 69.095C163.935 71.0197 163.022 73.7755 163.022 77.1046V82.2887C163.022 85.5678 163.951 88.2597 165.802 90.1324C167.655 92.0063 170.402 93.0305 173.981 93.0305H180.199C183.723 93.0305 186.495 92.0327 188.387 90.2209C190.279 88.4083 191.263 85.8068 191.263 82.6516V77.1046C191.263 73.7755 190.349 71.0195 188.5 69.0948C186.647 67.1679 183.884 66.1036 180.252 66.1036H173.981ZM168.942 77.2084C168.942 76.014 169.19 74.7616 169.95 73.8114C170.702 72.8712 171.986 72.1907 174.14 72.1907H179.562C181.714 72.1907 182.998 72.8712 183.751 73.8114C184.512 74.7616 184.76 76.014 184.76 77.2084V81.9777C184.76 83.1721 184.512 84.4109 183.752 85.3477C183 86.275 181.716 86.9436 179.562 86.9436H174.14C171.984 86.9436 170.7 86.275 169.95 85.3477C169.19 84.4109 168.942 83.1721 168.942 81.9777V77.2084Z" fill="#1F2937"/>
<path d="M304.722 66.2073H289.937V93.0305H296.123V72.2943H304.722C305.949 72.2943 307.205 72.5246 308.152 73.2582C309.087 73.9839 309.761 75.2344 309.761 77.3639V93.0305H316V77.1046C316 73.5107 314.924 70.7772 312.954 68.9436C310.988 67.1119 308.162 66.2073 304.722 66.2073Z" fill="#1F2937"/>
<path d="M122.683 66.311H116.445V81.9258C116.445 85.4936 117.508 88.2017 119.471 90.0161C121.431 91.8285 124.257 93.0305 127.722 93.0305H142.88V66.311H136.694V86.6842H127.722C126.495 86.6842 125.239 86.4541 124.293 85.7205C123.356 84.9947 122.683 83.7442 122.683 81.6148V66.311Z" fill="#1F2937"/>
<path fill-rule="evenodd" clip-rule="evenodd" d="M237.472 66.3629C233.957 66.3629 231.142 67.2134 229.207 68.9878C227.269 70.7646 226.247 73.4355 226.247 77.001V81.9776C226.247 85.2837 227.202 88.0385 229.058 89.9681C230.916 91.8998 233.65 93.0305 237.153 93.0305H253.532V66.3629H237.472ZM232.114 77.5193C232.114 75.2827 232.789 74.0093 233.741 73.2854C234.706 72.5527 236 72.3461 237.313 72.3461H247.56V86.9953H237.419C235.234 86.9953 233.924 86.3381 233.153 85.4044C232.375 84.4619 232.114 83.1983 232.114 81.9258V77.5193Z" fill="#1F2937"/>
<path d="M258.381 53.1026H264.565V66.2592H274.281C277.721 66.2592 280.534 67.1772 282.488 69.0158C284.444 70.8556 285.506 73.5888 285.506 77.1565V93.0305H279.267V77.3639C279.267 75.2597 278.607 74.0083 277.684 73.2761C276.75 72.5368 275.507 72.2943 274.281 72.2943H264.565V93.0305H258.381V53.1026Z" fill="#1F2937"/>
<path fill-rule="evenodd" clip-rule="evenodd" d="M88.2287 88.3222C87.4261 90.5441 87.0247 91.6549 86.1089 92.288C85.1933 92.921 83.9873 93.1348 81.5754 93.1348H78.3274L92.9016 53.1026H99.6283L114.202 93.1348H110.954C108.543 93.1348 107.337 92.921 106.421 92.288C105.505 91.6549 105.104 90.5441 104.301 88.3222L101.87 81.8214H90.6595L88.2287 88.3222ZM100.525 75.2944L96.2649 63.0728L92.0048 75.2944H100.525Z" fill="#1F2937"/>
</g>
<defs>
<clipPath id="clip0_75_511">
<rect width="316" height="146" fill="white"/>
</clipPath>
</defs>
</svg>
