<svg width="316" height="146" viewBox="0 0 316 146" fill="none" xmlns="http://www.w3.org/2000/svg">
<path d="M127.077 74.595L123.425 74.2595C121.03 74.0505 120.066 73.2108 120.066 71.7405C120.066 70.019 121.534 68.886 124.389 68.886C127.077 68.886 128.42 70.0593 128.629 71.9495H137.195C136.648 66.367 132.703 62.4198 124.642 62.4198C116.245 62.4198 111.625 66.7025 111.625 72.3693C111.625 77.6603 114.522 80.557 121.703 81.1455L125.315 81.4388C128.125 81.6497 129.134 82.614 129.134 84.2933C129.134 86.057 127.665 87.3587 124.642 87.3587C121.828 87.3587 120.15 86.0992 119.857 83.8753H110.828C111.625 89.962 115.908 93.9917 124.6 93.9917C133.039 93.9917 137.699 89.6687 137.699 83.8313C137.699 78.1645 134.591 75.2678 127.077 74.595ZM97.5197 62.4198C92.1462 62.4198 88.9543 65.2322 87.4437 70.9852H86.8973V62.924H78.4163V93.4893H87.4437V75.6877C87.4437 71.614 89.5428 69.3902 93.3213 69.3902C97.0577 69.3902 98.9057 71.7002 98.9057 75.6455V93.4893H107.931V74.0505C107.931 66.6603 104.07 62.4198 97.5197 62.4198ZM69.642 51C66.5767 51 64.2667 53.0167 64.2667 56.0802C64.2667 59.1455 66.5345 61.1603 69.5998 61.1603C72.6652 61.1603 74.9312 59.1437 74.9312 56.0802C74.9312 53.057 72.6652 51 69.642 51ZM74.1337 62.924H65.1063V93.4893H74.1337V62.924ZM151.889 56.4578H146.138C145.969 61.3712 143.87 63.5107 139.167 63.8883V70.1033H142.863V83.538C142.863 90.2975 146.724 93.9917 154.408 93.9917C155.853 93.9917 157.292 93.8083 158.691 93.4472V86.1817C157.97 86.3013 157.24 86.3572 156.509 86.3485C153.275 86.3485 151.889 85.1312 151.889 81.7303V70.1033H159.825V62.924H151.889V56.4578ZM295.058 70.1033V62.924H287.123V56.4578H281.454C281.328 59.8587 280.321 61.8313 278.096 62.924V83.538C278.096 90.2975 281.958 93.9917 289.642 93.9917C291.087 93.9917 292.526 93.8083 293.925 93.4472V86.1817C293.203 86.3014 292.472 86.3572 291.741 86.3485C288.507 86.3485 287.123 85.1312 287.123 81.7303V70.1033H295.058ZM265.501 71.4472H264.954V62.9222H256.6V93.4893H265.627V76.9472C265.627 72.3693 267.684 70.4388 272.387 70.4388C273.184 70.4388 274.066 70.5232 275.283 70.7322V62.8397C274.461 62.551 273.594 62.4089 272.722 62.4198C269.068 62.4198 266.549 64.519 265.501 71.4472ZM207.855 86.2678C203.615 86.2678 200.549 83.4537 200.549 77.9958C200.549 73.1265 203.404 70.1033 207.771 70.1033C211.507 70.1033 213.648 72.2025 214.279 75.5612H223.431C222.549 67.709 216.925 62.4198 207.897 62.4198C197.988 62.4198 191.482 69.1372 191.482 78.3332C191.482 87.8628 197.737 93.9917 207.771 93.9917C216.882 93.9917 222.802 88.9133 223.642 80.6817H214.488C213.986 84.0422 211.676 86.2678 207.855 86.2678ZM175.486 62.4198C167.634 62.4198 162.891 66.2827 162.049 73.209H170.699C170.992 70.8165 172.547 69.557 175.275 69.557C178.045 69.557 179.305 70.8165 179.305 72.6223C179.305 74.133 178.34 74.9323 175.863 75.3925L171.748 76.1497C164.486 77.4917 161.714 80.4727 161.714 85.2173C161.714 90.633 165.534 94.0357 170.825 94.0357C175.148 94.0357 177.963 92.019 179.264 86.981H179.809V93.4893H188.334V73.5463C188.334 66.6182 184.176 62.4198 175.486 62.4198ZM174.477 87.8628C172.043 87.8628 170.657 86.5612 170.657 84.6288C170.657 83.0338 171.623 81.943 174.015 81.3967L175.695 81.019C177.143 80.6835 178.267 80.2362 179.306 79.3378V82.5718C179.306 86.3082 177.332 87.8628 174.477 87.8628ZM239.638 62.4198C231.786 62.4198 227.043 66.2827 226.203 73.209H234.851C235.146 70.8165 236.699 69.557 239.427 69.557C242.199 69.557 243.458 70.8165 243.458 72.6223C243.458 74.133 242.492 74.9323 240.015 75.3925L235.901 76.1497C228.638 77.4917 225.866 80.4727 225.866 85.2173C225.866 90.633 229.686 94.0357 234.977 94.0357C239.302 94.0357 242.115 92.019 243.416 86.981H243.963V93.4893H252.486V73.5463C252.486 66.6182 248.328 62.4198 239.638 62.4198ZM238.629 87.8628C236.195 87.8628 234.809 86.5612 234.809 84.6288C234.809 83.0338 235.775 81.943 238.167 81.3967L239.847 81.019C241.295 80.6835 242.421 80.2362 243.458 79.3378V82.5718C243.458 86.3082 241.486 87.8628 238.629 87.8628Z" fill="#003D29"/>
<path d="M49.9116 58.3132C48.0563 58.3132 46.7326 59.1217 45.5116 60.878L41.9916 65.9325V51.5042H33.595V65.9325L30.075 60.878C28.8558 59.1217 27.5321 58.3132 25.675 58.3132C22.8736 58.3132 21.0091 60.3812 21 62.9295C20.9926 65.1112 22.0211 66.5338 24.19 67.9308L37.7933 76.6942L51.3966 67.9308C53.5655 66.5338 54.594 65.1112 54.5866 62.9295C54.5793 60.3812 52.713 58.3132 49.9116 58.3132Z" fill="#0AAD0A"/>
<path d="M37.7933 78.7933C45.8783 78.7933 52.5058 84.8287 52.4875 93.4893H23.0992C23.0827 84.8323 29.7083 78.7933 37.7933 78.7933Z" fill="#FF7009"/>
</svg>
