<svg width="320" height="69" viewBox="0 0 320 69" fill="none" xmlns="http://www.w3.org/2000/svg">
<rect width="320" height="69" fill="white"/>
<path d="M19.035 54.908C19.035 55.652 18.849 56.334 18.477 56.954C18.105 57.574 17.609 58.07 16.989 58.442C16.369 58.814 15.687 59 14.943 59H6.666C6.27333 59 5.93233 58.8657 5.643 58.597C5.37433 58.3077 5.24 57.9667 5.24 57.574V39.47C5.24 39.0567 5.37433 38.7157 5.643 38.447C5.93233 38.1783 6.27333 38.044 6.666 38.044H14.943C15.687 38.044 16.369 38.23 16.989 38.602C17.609 38.974 18.105 39.47 18.477 40.09C18.849 40.71 19.035 41.4023 19.035 42.167V54.908ZM15.346 54.908V42.167C15.346 41.8777 15.2117 41.733 14.943 41.733H9.363C9.09433 41.733 8.96 41.8673 8.96 42.136V54.939C8.96 55.2077 9.09433 55.342 9.363 55.342H14.943C15.0463 55.342 15.1393 55.3007 15.222 55.218C15.3047 55.1147 15.346 55.0113 15.346 54.908ZM25.2774 57.574C25.2774 57.9667 25.1327 58.3077 24.8434 58.597C24.5747 58.8657 24.244 59 23.8514 59H23.0144C22.6217 59 22.2807 58.8657 21.9914 58.597C21.7227 58.3077 21.5884 57.9667 21.5884 57.574V39.47C21.5884 39.0567 21.7227 38.7157 21.9914 38.447C22.2807 38.1783 22.6217 38.044 23.0144 38.044H23.8514C24.244 38.044 24.5747 38.1783 24.8434 38.447C25.1327 38.7157 25.2774 39.0567 25.2774 39.47V57.574ZM44.2237 57.574C44.2237 57.9667 44.0894 58.3077 43.8207 58.597C43.552 58.8657 43.211 59 42.7977 59H41.9607C41.568 59 41.227 58.8657 40.9377 58.597C40.669 58.3077 40.5347 57.9667 40.5347 57.574V48.243C40.5347 48.1603 40.4934 48.1087 40.4107 48.088C40.3487 48.0673 40.297 48.088 40.2557 48.15L37.2797 54.288C37.2177 54.4533 37.0834 54.598 36.8767 54.722C36.67 54.846 36.4737 54.9493 36.2877 55.032C36.1224 55.094 36.0397 55.125 36.0397 55.125C35.399 55.125 34.9754 54.846 34.7687 54.288L31.7927 48.15C31.772 48.088 31.7204 48.0673 31.6377 48.088C31.555 48.1087 31.5137 48.1603 31.5137 48.243V57.574C31.5137 57.9667 31.369 58.3077 31.0797 58.597C30.811 58.8657 30.4804 59 30.0877 59H29.2197C28.827 59 28.486 58.8657 28.1967 58.597C27.928 58.3077 27.7937 57.9667 27.7937 57.574V39.47C27.7937 39.0567 27.928 38.7157 28.1967 38.447C28.486 38.1783 28.827 38.044 29.2197 38.044H30.1187C30.6974 38.044 31.121 38.3127 31.3897 38.85C31.493 39.0773 31.6997 39.5217 32.0097 40.183C32.3404 40.8237 32.7227 41.5883 33.1567 42.477C33.5907 43.3657 34.035 44.306 34.4897 45.298C34.965 46.2693 35.4197 47.1993 35.8537 48.088C35.895 48.1707 35.9467 48.212 36.0087 48.212C36.0914 48.212 36.1534 48.1707 36.1947 48.088L40.6277 38.85C40.8964 38.3127 41.3304 38.044 41.9297 38.044H42.7977C43.211 38.044 43.552 38.1783 43.8207 38.447C44.0894 38.7157 44.2237 39.0567 44.2237 39.47V57.574ZM60.1989 57.574C60.1989 57.9667 60.0542 58.3077 59.7649 58.597C59.4962 58.8657 59.1759 59 58.8039 59H48.1399C47.7679 59 47.4372 58.8657 47.1479 58.597C46.8792 58.3077 46.7449 57.9667 46.7449 57.574V39.47C46.7449 39.0567 46.8792 38.7157 47.1479 38.447C47.4372 38.1783 47.7679 38.044 48.1399 38.044H58.8039C59.1759 38.044 59.4962 38.1783 59.7649 38.447C60.0542 38.7157 60.1989 39.0567 60.1989 39.47V40.307C60.1989 40.6997 60.0542 41.0407 59.7649 41.33C59.4962 41.5987 59.1759 41.733 58.8039 41.733H50.8059C50.5579 41.733 50.4339 41.8673 50.4339 42.136V46.259C50.4339 46.5483 50.5579 46.693 50.8059 46.693H57.6879C58.1012 46.693 58.4422 46.8273 58.7109 47.096C58.9795 47.3647 59.1139 47.6953 59.1139 48.088V48.956C59.1139 49.3487 58.9795 49.6897 58.7109 49.979C58.4422 50.2477 58.1012 50.382 57.6879 50.382H50.8059C50.5579 50.382 50.4339 50.506 50.4339 50.754V54.939C50.4339 55.2077 50.5579 55.342 50.8059 55.342H58.8039C59.1759 55.342 59.4962 55.4763 59.7649 55.745C60.0542 56.0137 60.1989 56.3547 60.1989 56.768V57.574ZM76.8667 57.574C76.8667 57.9667 76.722 58.3077 76.4327 58.597C76.164 58.8657 75.8334 59 75.4407 59H74.5417C73.9837 59 73.5704 58.7623 73.3017 58.287L66.6987 46.848C66.6574 46.7653 66.5954 46.7447 66.5127 46.786C66.43 46.8067 66.3887 46.848 66.3887 46.91V57.574C66.3887 57.9667 66.244 58.3077 65.9547 58.597C65.686 58.8657 65.3657 59 64.9937 59H64.1257C63.733 59 63.392 58.8657 63.1027 58.597C62.834 58.3077 62.6997 57.9667 62.6997 57.574V39.47C62.6997 39.0567 62.834 38.7157 63.1027 38.447C63.392 38.1783 63.733 38.044 64.1257 38.044H65.0247C65.5827 38.044 65.996 38.2817 66.2647 38.757L72.8677 50.196C72.9297 50.2787 72.9917 50.3097 73.0537 50.289C73.1364 50.2683 73.1777 50.2167 73.1777 50.134V39.47C73.1777 39.0567 73.312 38.7157 73.5807 38.447C73.87 38.1783 74.211 38.044 74.6037 38.044H75.4407C75.8334 38.044 76.164 38.1783 76.4327 38.447C76.722 38.7157 76.8667 39.0567 76.8667 39.47V57.574ZM93.5776 54.908C93.5776 55.652 93.3916 56.334 93.0196 56.954C92.6476 57.574 92.1516 58.07 91.5316 58.442C90.9116 58.814 90.2296 59 89.4856 59H83.5336C82.7896 59 82.0973 58.814 81.4566 58.442C80.8366 58.07 80.3406 57.574 79.9686 56.954C79.5966 56.334 79.4106 55.652 79.4106 54.908V53.978C79.4106 53.5853 79.545 53.2547 79.8136 52.986C80.103 52.6967 80.444 52.552 80.8366 52.552H81.7046C82.0766 52.552 82.397 52.6967 82.6656 52.986C82.955 53.2547 83.0996 53.5853 83.0996 53.978V54.908C83.0996 55.0113 83.141 55.1147 83.2236 55.218C83.327 55.3007 83.4303 55.342 83.5336 55.342H89.4856C89.589 55.342 89.682 55.3007 89.7646 55.218C89.8473 55.1147 89.8886 55.0113 89.8886 54.908V52.087C89.8886 51.8597 89.7853 51.715 89.5786 51.653L82.1386 48.863C81.312 48.5737 80.6506 48.0673 80.1546 47.344C79.6586 46.6207 79.4106 45.825 79.4106 44.957V42.167C79.4106 41.4023 79.5966 40.71 79.9686 40.09C80.3406 39.47 80.8366 38.974 81.4566 38.602C82.0973 38.23 82.7896 38.044 83.5336 38.044H89.4856C90.2296 38.044 90.9116 38.23 91.5316 38.602C92.1516 38.974 92.6476 39.47 93.0196 40.09C93.3916 40.71 93.5776 41.4023 93.5776 42.167V43.004C93.5776 43.3967 93.433 43.7273 93.1436 43.996C92.875 44.2647 92.5443 44.399 92.1516 44.399H91.3146C90.922 44.399 90.581 44.2647 90.2916 43.996C90.023 43.7273 89.8886 43.3967 89.8886 43.004V42.167C89.8886 41.8777 89.7543 41.733 89.4856 41.733H83.5336C83.4303 41.733 83.327 41.7743 83.2236 41.857C83.141 41.9397 83.0996 42.043 83.0996 42.167V44.957C83.0996 45.205 83.203 45.36 83.4096 45.422L90.8806 48.212C91.6866 48.5013 92.3376 49.0077 92.8336 49.731C93.3296 50.4543 93.5776 51.2397 93.5776 52.087V54.908ZM99.8106 57.574C99.8106 57.9667 99.6659 58.3077 99.3766 58.597C99.1079 58.8657 98.7773 59 98.3846 59H97.5476C97.1549 59 96.8139 58.8657 96.5246 58.597C96.2559 58.3077 96.1216 57.9667 96.1216 57.574V39.47C96.1216 39.0567 96.2559 38.7157 96.5246 38.447C96.8139 38.1783 97.1549 38.044 97.5476 38.044H98.3846C98.7773 38.044 99.1079 38.1783 99.3766 38.447C99.6659 38.7157 99.8106 39.0567 99.8106 39.47V57.574ZM116.525 54.908C116.525 55.652 116.339 56.334 115.967 56.954C115.595 57.574 115.099 58.07 114.479 58.442C113.859 58.814 113.177 59 112.433 59H106.481C105.737 59 105.045 58.814 104.404 58.442C103.784 58.07 103.288 57.574 102.916 56.954C102.544 56.334 102.358 55.652 102.358 54.908V42.167C102.358 41.4023 102.544 40.71 102.916 40.09C103.288 39.47 103.784 38.974 104.404 38.602C105.045 38.23 105.737 38.044 106.481 38.044H112.433C113.177 38.044 113.859 38.23 114.479 38.602C115.099 38.974 115.595 39.47 115.967 40.09C116.339 40.71 116.525 41.4023 116.525 42.167V54.908ZM112.836 54.908V42.167C112.836 41.8777 112.702 41.733 112.433 41.733H106.481C106.378 41.733 106.274 41.7743 106.171 41.857C106.088 41.9397 106.047 42.043 106.047 42.167V54.908C106.047 55.0113 106.088 55.1147 106.171 55.218C106.274 55.3007 106.378 55.342 106.481 55.342H112.433C112.536 55.342 112.629 55.3007 112.712 55.218C112.795 55.1147 112.836 55.0113 112.836 54.908ZM133.236 57.574C133.236 57.9667 133.091 58.3077 132.802 58.597C132.533 58.8657 132.203 59 131.81 59H130.911C130.353 59 129.94 58.7623 129.671 58.287L123.068 46.848C123.027 46.7653 122.965 46.7447 122.882 46.786C122.799 46.8067 122.758 46.848 122.758 46.91V57.574C122.758 57.9667 122.613 58.3077 122.324 58.597C122.055 58.8657 121.735 59 121.363 59H120.495C120.102 59 119.761 58.8657 119.472 58.597C119.203 58.3077 119.069 57.9667 119.069 57.574V39.47C119.069 39.0567 119.203 38.7157 119.472 38.447C119.761 38.1783 120.102 38.044 120.495 38.044H121.394C121.952 38.044 122.365 38.2817 122.634 38.757L129.237 50.196C129.299 50.2787 129.361 50.3097 129.423 50.289C129.506 50.2683 129.547 50.2167 129.547 50.134V39.47C129.547 39.0567 129.681 38.7157 129.95 38.447C130.239 38.1783 130.58 38.044 130.973 38.044H131.81C132.203 38.044 132.533 38.1783 132.802 38.447C133.091 38.7157 133.236 39.0567 133.236 39.47V57.574ZM149.947 54.908C149.947 55.652 149.761 56.334 149.389 56.954C149.017 57.574 148.521 58.07 147.901 58.442C147.281 58.814 146.599 59 145.855 59H139.903C139.159 59 138.466 58.814 137.826 58.442C137.206 58.07 136.71 57.574 136.338 56.954C135.966 56.334 135.78 55.652 135.78 54.908V53.978C135.78 53.5853 135.914 53.2547 136.183 52.986C136.472 52.6967 136.813 52.552 137.206 52.552H138.074C138.446 52.552 138.766 52.6967 139.035 52.986C139.324 53.2547 139.469 53.5853 139.469 53.978V54.908C139.469 55.0113 139.51 55.1147 139.593 55.218C139.696 55.3007 139.799 55.342 139.903 55.342H145.855C145.958 55.342 146.051 55.3007 146.134 55.218C146.216 55.1147 146.258 55.0113 146.258 54.908V52.087C146.258 51.8597 146.154 51.715 145.948 51.653L138.508 48.863C137.681 48.5737 137.02 48.0673 136.524 47.344C136.028 46.6207 135.78 45.825 135.78 44.957V42.167C135.78 41.4023 135.966 40.71 136.338 40.09C136.71 39.47 137.206 38.974 137.826 38.602C138.466 38.23 139.159 38.044 139.903 38.044H145.855C146.599 38.044 147.281 38.23 147.901 38.602C148.521 38.974 149.017 39.47 149.389 40.09C149.761 40.71 149.947 41.4023 149.947 42.167V43.004C149.947 43.3967 149.802 43.7273 149.513 43.996C149.244 44.2647 148.913 44.399 148.521 44.399H147.684C147.291 44.399 146.95 44.2647 146.661 43.996C146.392 43.7273 146.258 43.3967 146.258 43.004V42.167C146.258 41.8777 146.123 41.733 145.855 41.733H139.903C139.799 41.733 139.696 41.7743 139.593 41.857C139.51 41.9397 139.469 42.043 139.469 42.167V44.957C139.469 45.205 139.572 45.36 139.779 45.422L147.25 48.212C148.056 48.5013 148.707 49.0077 149.203 49.731C149.699 50.4543 149.947 51.2397 149.947 52.087V54.908Z" fill="black"/>
<path d="M11.749 27.574C11.749 27.9667 11.6147 28.3077 11.346 28.597C11.098 28.8657 10.7777 29 10.385 29H9.517C9.12433 29 8.78333 28.8657 8.494 28.597C8.22533 28.3077 8.091 27.9667 8.091 27.574V13.469C8.091 13.3863 8.04967 13.3347 7.967 13.314C7.905 13.2727 7.85333 13.2727 7.812 13.314L7.347 13.779C7.099 14.0683 6.76833 14.213 6.355 14.213C6.14833 14.213 5.96233 14.1717 5.797 14.089C5.52833 13.9857 5.32167 13.81 5.177 13.562C5.03233 13.314 4.96 13.0557 4.96 12.787V11.578C4.96 11.1853 5.09433 10.8443 5.363 10.555L7.471 8.478C7.61567 8.354 7.77067 8.25067 7.936 8.168C8.10133 8.08533 8.28733 8.044 8.494 8.044H10.385C10.7777 8.044 11.098 8.17833 11.346 8.447C11.6147 8.71567 11.749 9.05667 11.749 9.47V27.574ZM30.605 24.908C30.605 25.652 30.419 26.334 30.047 26.954C29.675 27.574 29.179 28.07 28.559 28.442C27.939 28.814 27.257 29 26.513 29H20.561C19.8997 29 19.2693 28.845 18.67 28.535L18.639 28.504C17.957 28.1527 17.4197 27.6567 17.027 27.016C16.6343 26.3547 16.438 25.652 16.438 24.908V12.167C16.438 11.4023 16.624 10.71 16.996 10.09C17.368 9.47 17.864 8.974 18.484 8.602C19.1247 8.23 19.817 8.044 20.561 8.044H26.513C26.699 8.044 26.947 8.075 27.257 8.137C27.5877 8.17833 27.9287 8.292 28.28 8.478H28.311C29.0137 8.82933 29.5717 9.33567 29.985 9.997C30.3983 10.6377 30.605 11.361 30.605 12.167V24.908ZM24.839 12.105C24.8803 12.0017 24.8803 11.919 24.839 11.857C24.7977 11.7743 24.7253 11.733 24.622 11.733H20.561C20.4577 11.733 20.3543 11.7743 20.251 11.857C20.1683 11.9397 20.127 12.043 20.127 12.167V20.227C20.127 20.3097 20.1683 20.3613 20.251 20.382C20.3337 20.4027 20.3957 20.3717 20.437 20.289L24.839 12.105ZM26.916 24.908V16.631C26.916 16.5277 26.8747 16.4657 26.792 16.445C26.73 16.4243 26.668 16.4553 26.606 16.538L22.111 24.97C22.0903 25.0527 22.1007 25.1353 22.142 25.218C22.1833 25.3007 22.2453 25.342 22.328 25.342H26.513C26.6163 25.342 26.7093 25.3007 26.792 25.218C26.8747 25.1147 26.916 25.0113 26.916 24.908ZM47.3159 24.908C47.3159 25.652 47.1299 26.334 46.7579 26.954C46.3859 27.574 45.8899 28.07 45.2699 28.442C44.6499 28.814 43.9679 29 43.2239 29H37.2719C36.6106 29 35.9803 28.845 35.3809 28.535L35.3499 28.504C34.6679 28.1527 34.1306 27.6567 33.7379 27.016C33.3453 26.3547 33.1489 25.652 33.1489 24.908V12.167C33.1489 11.4023 33.3349 10.71 33.7069 10.09C34.0789 9.47 34.5749 8.974 35.1949 8.602C35.8356 8.23 36.5279 8.044 37.2719 8.044H43.2239C43.4099 8.044 43.6579 8.075 43.9679 8.137C44.2986 8.17833 44.6396 8.292 44.9909 8.478H45.0219C45.7246 8.82933 46.2826 9.33567 46.6959 9.997C47.1093 10.6377 47.3159 11.361 47.3159 12.167V24.908ZM41.5499 12.105C41.5913 12.0017 41.5913 11.919 41.5499 11.857C41.5086 11.7743 41.4363 11.733 41.3329 11.733H37.2719C37.1686 11.733 37.0653 11.7743 36.9619 11.857C36.8793 11.9397 36.8379 12.043 36.8379 12.167V20.227C36.8379 20.3097 36.8793 20.3613 36.9619 20.382C37.0446 20.4027 37.1066 20.3717 37.1479 20.289L41.5499 12.105ZM43.6269 24.908V16.631C43.6269 16.5277 43.5856 16.4657 43.5029 16.445C43.4409 16.4243 43.3789 16.4553 43.3169 16.538L38.8219 24.97C38.8013 25.0527 38.8116 25.1353 38.8529 25.218C38.8943 25.3007 38.9563 25.342 39.0389 25.342H43.2239C43.3273 25.342 43.4203 25.3007 43.5029 25.218C43.5856 25.1147 43.6269 25.0113 43.6269 24.908ZM58.1582 27.574C58.1582 27.9667 58.0238 28.3077 57.7552 28.597C57.5072 28.8657 57.1868 29 56.7942 29H55.9262C55.5335 29 55.1925 28.8657 54.9032 28.597C54.6345 28.3077 54.5002 27.9667 54.5002 27.574V13.469C54.5002 13.3863 54.4588 13.3347 54.3762 13.314C54.3142 13.2727 54.2625 13.2727 54.2212 13.314L53.7562 13.779C53.5082 14.0683 53.1775 14.213 52.7642 14.213C52.5575 14.213 52.3715 14.1717 52.2062 14.089C51.9375 13.9857 51.7308 13.81 51.5862 13.562C51.4415 13.314 51.3692 13.0557 51.3692 12.787V11.578C51.3692 11.1853 51.5035 10.8443 51.7722 10.555L53.8802 8.478C54.0248 8.354 54.1798 8.25067 54.3452 8.168C54.5105 8.08533 54.6965 8.044 54.9032 8.044H56.7942C57.1868 8.044 57.5072 8.17833 57.7552 8.447C58.0238 8.71567 58.1582 9.05667 58.1582 9.47V27.574Z" fill="#C7C7C7"/>
</svg>
